<svg width="24" height="24" viewBox="0 0 24 24" fill="none" xmlns="http://www.w3.org/2000/svg">
<path d="M5.125 4C4.2962 4 3.50134 4.32924 2.91529 4.91529C2.32924 5.50134 2 6.2962 2 7.125V15.875C2 16.7038 2.32924 17.4987 2.91529 18.0847C3.50134 18.6708 4.2962 19 5.125 19H13.875C14.7038 19 15.4987 18.6708 16.0847 18.0847C16.6708 17.4987 17 16.7038 17 15.875V14.625L20 16.875C20.1857 17.0143 20.4065 17.0991 20.6377 17.12C20.8689 17.1408 21.1014 17.0969 21.309 16.993C21.5166 16.8892 21.6913 16.7296 21.8133 16.5322C21.9354 16.3347 22 16.1071 22 15.875V7.125C22 6.89286 21.9354 6.66531 21.8133 6.46784C21.6913 6.27037 21.5166 6.11078 21.309 6.00697C21.1014 5.90315 20.8689 5.8592 20.6377 5.88005C20.4065 5.9009 20.1857 5.98572 20 6.125L17 8.375V7.125C17 6.2962 16.6708 5.50134 16.0847 4.91529C15.4987 4.32924 14.7038 4 13.875 4H5.125ZM17 9.9375L20.75 7.125V15.875L17 13.0625V9.9375ZM15.75 7.125V15.875C15.75 16.3723 15.5525 16.8492 15.2008 17.2008C14.8492 17.5525 14.3723 17.75 13.875 17.75H5.125C4.62772 17.75 4.15081 17.5525 3.79917 17.2008C3.44754 16.8492 3.25 16.3723 3.25 15.875V7.125C3.25 6.62772 3.44754 6.15081 3.79917 5.79917C4.15081 5.44754 4.62772 5.25 5.125 5.25H13.875C14.3723 5.25 14.8492 5.44754 15.2008 5.79917C15.5525 6.15081 15.75 6.62772 15.75 7.125Z" fill="#190236"/>
</svg>
