<svg width="24" height="24" viewBox="0 0 24 24" fill="none" xmlns="http://www.w3.org/2000/svg">
<path d="M10.5654 21.5544H2.83878C2.35132 21.5538 1.88398 21.3599 1.53927 21.0153C1.19456 20.6706 1.00062 20.2033 1 19.7158V2.83855C1.00062 2.35108 1.19456 1.88377 1.53927 1.5391C1.88398 1.19444 2.35132 1.00056 2.83878 1H10.5654C11.0529 1.00056 11.5202 1.19444 11.8649 1.5391C12.2097 1.88377 12.4036 2.35108 12.4042 2.83855V19.7158C12.4036 20.2033 12.2097 20.6706 11.8649 21.0153C11.5202 21.3599 11.0529 21.5538 10.5654 21.5544ZM2.83878 1.82298C2.56951 1.8233 2.31136 1.93038 2.12093 2.12076C1.93051 2.31115 1.82336 2.56928 1.82298 2.83855V19.7158C1.8233 19.9851 1.93042 20.2433 2.12086 20.4337C2.3113 20.6241 2.56949 20.7311 2.83878 20.7314H10.5654C10.8347 20.7311 11.0929 20.6241 11.2833 20.4337C11.4738 20.2433 11.5809 19.9851 11.5812 19.7158V2.83855C11.5808 2.56928 11.4737 2.31115 11.2833 2.12076C11.0929 1.93038 10.8347 1.8233 10.5654 1.82298H2.83878Z" fill="#190236"/>
<path d="M3.92694 23.0001H3.62432C3.32044 22.9997 3.02909 22.8789 2.8142 22.6641C2.5993 22.4492 2.4784 22.1579 2.47803 21.854V21.1429C2.47803 21.0338 2.52138 20.9291 2.59855 20.852C2.67572 20.7748 2.78038 20.7314 2.88952 20.7314H4.66269C4.77182 20.7314 4.87649 20.7748 4.95366 20.852C5.03083 20.9291 5.07418 21.0338 5.07418 21.1429V21.854C5.07381 22.158 4.95278 22.4495 4.73768 22.6644C4.52258 22.8793 4.23099 23 3.92694 23.0001ZM3.30007 21.5544V21.854C3.30025 21.9397 3.33438 22.0218 3.39498 22.0823C3.45558 22.1429 3.53771 22.1769 3.62338 22.1771H3.92694C4.01261 22.1769 4.09474 22.1429 4.15534 22.0823C4.21594 22.0218 4.25007 21.9397 4.25026 21.854V21.5544H3.30007Z" fill="#190236"/>
<path d="M9.77949 23.0001H9.47687C9.17298 22.9997 8.88163 22.8789 8.66674 22.6641C8.45184 22.4492 8.33094 22.1579 8.33057 21.854V21.1429C8.33057 21.0338 8.37392 20.9291 8.45109 20.852C8.52826 20.7748 8.63292 20.7314 8.74206 20.7314H10.5152C10.6244 20.7314 10.729 20.7748 10.8062 20.852C10.8834 20.9291 10.9267 21.0338 10.9267 21.1429V21.854C10.9264 22.158 10.8053 22.4495 10.5902 22.6644C10.3751 22.8793 10.0835 23 9.77949 23.0001ZM9.15261 21.5544V21.854C9.1528 21.9397 9.18693 22.0218 9.24753 22.0823C9.30813 22.1429 9.39026 22.1769 9.47593 22.1771H9.77949C9.86516 22.1769 9.94729 22.1429 10.0079 22.0823C10.0685 22.0218 10.1026 21.9397 10.1028 21.854V21.5544H9.15261Z" fill="#190236"/>
<path d="M9.15798 4.5388H4.24499C4.13585 4.5388 4.03119 4.49545 3.95402 4.41828C3.87685 4.34111 3.8335 4.23645 3.8335 4.12731C3.8335 4.01818 3.87685 3.91351 3.95402 3.83634C4.03119 3.75917 4.13585 3.71582 4.24499 3.71582H9.15798C9.26711 3.71582 9.37178 3.75917 9.44894 3.83634C9.52611 3.91351 9.56947 4.01818 9.56947 4.12731C9.56947 4.23645 9.52611 4.34111 9.44894 4.41828C9.37178 4.49545 9.26711 4.5388 9.15798 4.5388Z" fill="#190236"/>
<path d="M9.15798 6.32152H4.24499C4.13585 6.32152 4.03119 6.27817 3.95402 6.201C3.87685 6.12383 3.8335 6.01916 3.8335 5.91003C3.8335 5.80089 3.87685 5.69623 3.95402 5.61906C4.03119 5.54189 4.13585 5.49854 4.24499 5.49854H9.15798C9.26711 5.49854 9.37178 5.54189 9.44894 5.61906C9.52611 5.69623 9.56947 5.80089 9.56947 5.91003C9.56947 6.01916 9.52611 6.12383 9.44894 6.201C9.37178 6.27817 9.26711 6.32152 9.15798 6.32152Z" fill="#190236"/>
<path d="M9.15798 8.10423H4.24499C4.13585 8.10423 4.03119 8.06088 3.95402 7.98371C3.87685 7.90654 3.8335 7.80188 3.8335 7.69274C3.8335 7.58361 3.87685 7.47894 3.95402 7.40177C4.03119 7.3246 4.13585 7.28125 4.24499 7.28125H9.15798C9.26711 7.28125 9.37178 7.3246 9.44894 7.40177C9.52611 7.47894 9.56947 7.58361 9.56947 7.69274C9.56947 7.80188 9.52611 7.90654 9.44894 7.98371C9.37178 8.06088 9.26711 8.10423 9.15798 8.10423Z" fill="#190236"/>
<path d="M9.15802 13.3566C8.92628 13.3566 8.69975 13.2879 8.50706 13.1591C8.31438 13.0304 8.1642 12.8474 8.07552 12.6333C7.98684 12.4192 7.96363 12.1836 8.00884 11.9563C8.05405 11.729 8.16565 11.5202 8.32951 11.3564C8.49337 11.1925 8.70215 11.0809 8.92944 11.0357C9.15672 10.9905 9.39231 11.0137 9.60641 11.1024C9.82051 11.1911 10.0035 11.3412 10.1323 11.5339C10.261 11.7266 10.3297 11.9531 10.3297 12.1849C10.3294 12.4955 10.2059 12.7934 9.98619 13.0131C9.76652 13.2327 9.46868 13.3563 9.15802 13.3566ZM9.15802 11.8364C9.08904 11.8364 9.02162 11.8569 8.96427 11.8952C8.90692 11.9335 8.86222 11.988 8.83583 12.0517C8.80945 12.1155 8.80256 12.1856 8.81603 12.2532C8.8295 12.3209 8.86274 12.383 8.91153 12.4318C8.96032 12.4805 9.02248 12.5137 9.09014 12.5272C9.1578 12.5406 9.22792 12.5336 9.29163 12.5072C9.35535 12.4808 9.40979 12.4361 9.44808 12.3787C9.48637 12.3213 9.50678 12.2539 9.50673 12.1849C9.50676 12.1391 9.49777 12.0937 9.48026 12.0513C9.46275 12.009 9.43708 11.9705 9.4047 11.9381C9.37231 11.9056 9.33387 11.8799 9.29154 11.8624C9.24922 11.8448 9.20385 11.8357 9.15802 11.8357V11.8364Z" fill="#190236"/>
<path d="M21.1465 21.5544H13.4198C12.9324 21.5538 12.465 21.3599 12.1203 21.0153C11.7756 20.6706 11.5817 20.2033 11.5811 19.7158V2.83855C11.5817 2.35108 11.7756 1.88377 12.1203 1.5391C12.465 1.19444 12.9324 1.00056 13.4198 1H21.1465C21.6339 1.00056 22.1013 1.19444 22.446 1.5391C22.7907 1.88377 22.9846 2.35108 22.9853 2.83855V19.7158C22.9846 20.2033 22.7907 20.6706 22.446 21.0153C22.1013 21.3599 21.6339 21.5538 21.1465 21.5544ZM13.4198 1.82298C13.1506 1.8233 12.8924 1.93038 12.702 2.12076C12.5116 2.31115 12.4044 2.56928 12.404 2.83855V19.7158C12.4043 19.9851 12.5115 20.2433 12.7019 20.4337C12.8924 20.6241 13.1505 20.7311 13.4198 20.7314H21.1465C21.4158 20.7311 21.674 20.6241 21.8644 20.4337C22.0548 20.2433 22.162 19.9851 22.1623 19.7158V2.83855C22.1619 2.56928 22.0548 2.31115 21.8643 2.12076C21.6739 1.93038 21.4157 1.8233 21.1465 1.82298H13.4198Z" fill="#190236"/>
<path d="M14.5087 23.0001H14.2061C13.9022 22.9997 13.6109 22.8789 13.396 22.6641C13.1811 22.4492 13.0602 22.1579 13.0598 21.854V21.1429C13.0598 21.0338 13.1032 20.9291 13.1803 20.852C13.2575 20.7748 13.3622 20.7314 13.4713 20.7314H15.2445C15.3536 20.7314 15.4583 20.7748 15.5355 20.852C15.6126 20.9291 15.656 21.0338 15.656 21.1429V21.854C15.6556 22.158 15.5346 22.4495 15.3195 22.6644C15.1044 22.8793 14.8128 23 14.5087 23.0001ZM13.8819 21.5544V21.854C13.882 21.9397 13.9162 22.0218 13.9768 22.0823C14.0374 22.1429 14.1195 22.1769 14.2052 22.1771H14.5087C14.5944 22.1769 14.6765 22.1429 14.7371 22.0823C14.7977 22.0218 14.8319 21.9397 14.832 21.854V21.5544H13.8819Z" fill="#190236"/>
<path d="M20.3605 23.0001H20.0579C19.754 22.9997 19.4627 22.8789 19.2478 22.6641C19.0329 22.4492 18.912 22.1579 18.9116 21.854V21.1429C18.9116 21.0338 18.955 20.9291 19.0321 20.852C19.1093 20.7748 19.214 20.7314 19.3231 20.7314H21.0963C21.2054 20.7314 21.3101 20.7748 21.3873 20.852C21.4644 20.9291 21.5078 21.0338 21.5078 21.1429V21.854C21.5074 22.158 21.3864 22.4495 21.1713 22.6644C20.9562 22.8793 20.6646 23 20.3605 23.0001ZM19.7337 21.5544V21.854C19.7338 21.9397 19.768 22.0218 19.8286 22.0823C19.8892 22.1429 19.9713 22.1769 20.057 22.1771H20.3605C20.4462 22.1769 20.5283 22.1429 20.5889 22.0823C20.6495 22.0218 20.6837 21.9397 20.6839 21.854V21.5544H19.7337Z" fill="#190236"/>
<path d="M19.7405 4.5388H14.8275C14.7184 4.5388 14.6137 4.49545 14.5365 4.41828C14.4594 4.34111 14.416 4.23645 14.416 4.12731C14.416 4.01818 14.4594 3.91351 14.5365 3.83634C14.6137 3.75917 14.7184 3.71582 14.8275 3.71582H19.7405C19.8496 3.71582 19.9543 3.75917 20.0315 3.83634C20.1086 3.91351 20.152 4.01818 20.152 4.12731C20.152 4.23645 20.1086 4.34111 20.0315 4.41828C19.9543 4.49545 19.8496 4.5388 19.7405 4.5388Z" fill="#190236"/>
<path d="M19.7405 6.32152H14.8275C14.7184 6.32152 14.6137 6.27817 14.5365 6.201C14.4594 6.12383 14.416 6.01916 14.416 5.91003C14.416 5.80089 14.4594 5.69623 14.5365 5.61906C14.6137 5.54189 14.7184 5.49854 14.8275 5.49854H19.7405C19.8496 5.49854 19.9543 5.54189 20.0315 5.61906C20.1086 5.69623 20.152 5.80089 20.152 5.91003C20.152 6.01916 20.1086 6.12383 20.0315 6.201C19.9543 6.27817 19.8496 6.32152 19.7405 6.32152Z" fill="#190236"/>
<path d="M19.7405 8.10399H14.8275C14.7184 8.10399 14.6137 8.06064 14.5365 7.98347C14.4594 7.9063 14.416 7.80163 14.416 7.6925C14.416 7.58336 14.4594 7.4787 14.5365 7.40153C14.6137 7.32436 14.7184 7.28101 14.8275 7.28101H19.7405C19.8496 7.28101 19.9543 7.32436 20.0315 7.40153C20.1086 7.4787 20.152 7.58336 20.152 7.6925C20.152 7.80163 20.1086 7.9063 20.0315 7.98347C19.9543 8.06064 19.8496 8.10399 19.7405 8.10399Z" fill="#190236"/>
<path d="M19.7396 13.3566C19.5078 13.3566 19.2813 13.2879 19.0886 13.1591C18.8959 13.0304 18.7457 12.8474 18.6571 12.6333C18.5684 12.4192 18.5452 12.1836 18.5904 11.9563C18.6356 11.729 18.7472 11.5202 18.9111 11.3564C19.0749 11.1925 19.2837 11.0809 19.511 11.0357C19.7383 10.9905 19.9739 11.0137 20.188 11.1024C20.4021 11.1911 20.585 11.3412 20.7138 11.5339C20.8425 11.7266 20.9113 11.9531 20.9113 12.1849C20.911 12.4955 20.7874 12.7934 20.5677 13.0131C20.3481 13.2327 20.0502 13.3563 19.7396 13.3566ZM19.7396 11.8364C19.6706 11.8364 19.6032 11.8569 19.5458 11.8952C19.4885 11.9335 19.4438 11.988 19.4174 12.0517C19.391 12.1155 19.3841 12.1856 19.3976 12.2532C19.411 12.3209 19.4443 12.383 19.4931 12.4318C19.5419 12.4805 19.604 12.5137 19.6717 12.5272C19.7393 12.5406 19.8095 12.5336 19.8732 12.5072C19.9369 12.4808 19.9913 12.4361 20.0296 12.3787C20.0679 12.3213 20.0883 12.2539 20.0883 12.1849C20.0883 12.1391 20.0793 12.0937 20.0618 12.0513C20.0443 12.009 20.0186 11.9705 19.9862 11.9381C19.9539 11.9056 19.9154 11.8799 19.8731 11.8624C19.8308 11.8448 19.7854 11.8357 19.7396 11.8357V11.8364Z" fill="#190236"/>
</svg>
