<svg width="192" height="45" viewBox="0 0 192 45" fill="none" xmlns="http://www.w3.org/2000/svg">
<g filter="url(#filter0_d_1348_24637)">
<path fill-rule="evenodd" clip-rule="evenodd" d="M15.511 8.16308L10.5874 27.6952C10.0246 29.9278 11.6997 32.0969 13.9865 32.0969H33.5678C35.1722 32.0969 36.572 31.0002 36.9669 29.4338L41.8904 9.90172C42.4532 7.66912 40.7782 5.5 38.4913 5.5H18.91C17.3056 5.5 15.9058 6.59672 15.511 8.16308ZM17.7718 9.32741L13.1902 27.4862C12.9283 28.5241 13.7069 29.5327 14.7699 29.5327H33.0471C33.7926 29.5327 34.4431 29.0231 34.6268 28.2952L39.2084 10.1364C39.4703 9.0985 38.6917 8.08989 37.6287 8.08989H19.3515C18.606 8.08989 17.9555 8.59949 17.7718 9.32741Z" fill="#8024F4"/>
<path fill-rule="evenodd" clip-rule="evenodd" d="M13.1902 27.4862L17.7718 9.32741C17.9555 8.59949 18.606 8.08989 19.3515 8.08989H37.6287C38.6917 8.08989 39.4703 9.0985 39.2084 10.1364L34.6268 28.2952C34.4431 29.0231 33.7926 29.5327 33.0471 29.5327H14.7699C13.7069 29.5327 12.9283 28.5241 13.1902 27.4862ZM18.3315 10.0138L14.0551 26.6972C13.8106 27.6507 14.5373 28.5774 15.5296 28.5774H32.5894C33.2853 28.5774 33.8925 28.1092 34.0639 27.4404L38.3404 10.7571C38.5848 9.80348 37.8581 8.87682 36.8659 8.87682H19.806C19.1101 8.87682 18.5029 9.34502 18.3315 10.0138Z" fill="#8024F4"/>
<path fill-rule="evenodd" clip-rule="evenodd" d="M7.03319 14.5659L2.10963 34.098C1.54684 36.3306 3.22188 38.4997 5.5087 38.4997H25.09C26.6944 38.4997 28.0942 37.403 28.4891 35.8367L33.4126 16.3045C33.9754 14.072 32.3004 11.9028 30.0136 11.9028H10.4323C8.82785 11.9028 7.42803 12.9996 7.03319 14.5659ZM9.34558 15.7302L4.76399 33.889C4.50212 34.9269 5.28067 35.9355 6.3437 35.9355H24.6209C25.3664 35.9355 26.0169 35.4259 26.2006 34.698L30.7822 16.5392C31.044 15.5013 30.2655 14.4927 29.2025 14.4927H10.9253C10.1798 14.4927 9.52924 15.0023 9.34558 15.7302Z" fill="#190236"/>
<path fill-rule="evenodd" clip-rule="evenodd" d="M4.76399 33.889L9.34558 15.7302C9.52924 15.0023 10.1798 14.4927 10.9253 14.4927H29.2025C30.2655 14.4927 31.044 15.5013 30.7822 16.5392L26.2006 34.698C26.0169 35.4259 25.3664 35.9355 24.6209 35.9355H6.3437C5.28067 35.9355 4.50212 34.9269 4.76399 33.889ZM9.85374 16.4967L5.57729 33.1801C5.33286 34.1336 6.05955 35.0603 7.05179 35.0603H24.1117C24.8076 35.0603 25.4147 34.5921 25.5862 33.9233L29.8626 17.24C30.107 16.2864 29.3804 15.3597 28.3881 15.3597H11.3282C10.6324 15.3597 10.0252 15.8279 9.85374 16.4967Z" fill="#190236"/>
</g>
<path d="M65.984 34V14.112H58.32V10.96H76.992V14.112H69.328V34H65.984ZM92.814 34.48C91.086 34.48 89.5873 34.0907 88.318 33.312C87.0487 32.5333 86.0673 31.4613 85.374 30.096C84.6913 28.72 84.35 27.136 84.35 25.344C84.35 23.5413 84.702 21.9573 85.406 20.592C86.11 19.216 87.0967 18.1493 88.366 17.392C89.6353 16.624 91.118 16.24 92.814 16.24C94.542 16.24 96.0407 16.6293 97.31 17.408C98.5793 18.1867 99.5607 19.2587 100.254 20.624C100.947 21.9893 101.294 23.5627 101.294 25.344C101.294 27.1467 100.942 28.736 100.238 30.112C99.5447 31.4773 98.5633 32.5493 97.294 33.328C96.0247 34.096 94.5313 34.48 92.814 34.48ZM92.814 31.328C94.4673 31.328 95.6993 30.7733 96.51 29.664C97.3313 28.544 97.742 27.104 97.742 25.344C97.742 23.5413 97.326 22.1013 96.494 21.024C95.6727 19.936 94.446 19.392 92.814 19.392C91.694 19.392 90.7713 19.648 90.046 20.16C89.3207 20.6613 88.782 21.36 88.43 22.256C88.078 23.1413 87.902 24.1707 87.902 25.344C87.902 27.1573 88.318 28.608 89.15 29.696C89.982 30.784 91.2033 31.328 92.814 31.328ZM120.634 34.48C118.906 34.48 117.407 34.0907 116.138 33.312C114.869 32.5333 113.887 31.4613 113.194 30.096C112.511 28.72 112.17 27.136 112.17 25.344C112.17 23.5413 112.522 21.9573 113.226 20.592C113.93 19.216 114.917 18.1493 116.186 17.392C117.455 16.624 118.938 16.24 120.634 16.24C122.362 16.24 123.861 16.6293 125.13 17.408C126.399 18.1867 127.381 19.2587 128.074 20.624C128.767 21.9893 129.114 23.5627 129.114 25.344C129.114 27.1467 128.762 28.736 128.058 30.112C127.365 31.4773 126.383 32.5493 125.114 33.328C123.845 34.096 122.351 34.48 120.634 34.48ZM120.634 31.328C122.287 31.328 123.519 30.7733 124.33 29.664C125.151 28.544 125.562 27.104 125.562 25.344C125.562 23.5413 125.146 22.1013 124.314 21.024C123.493 19.936 122.266 19.392 120.634 19.392C119.514 19.392 118.591 19.648 117.866 20.16C117.141 20.6613 116.602 21.36 116.25 22.256C115.898 23.1413 115.722 24.1707 115.722 25.344C115.722 27.1573 116.138 28.608 116.97 29.696C117.802 30.784 119.023 31.328 120.634 31.328ZM141.27 34V10.48H144.614V34H141.27ZM158.059 34V10.48H161.403V34H158.059ZM182.031 34.48C180.303 34.48 178.805 34.0907 177.535 33.312C176.266 32.5333 175.285 31.4613 174.591 30.096C173.909 28.72 173.567 27.136 173.567 25.344C173.567 23.5413 173.919 21.9573 174.623 20.592C175.327 19.216 176.314 18.1493 177.583 17.392C178.853 16.624 180.335 16.24 182.031 16.24C183.759 16.24 185.258 16.6293 186.527 17.408C187.797 18.1867 188.778 19.2587 189.471 20.624C190.165 21.9893 190.511 23.5627 190.511 25.344C190.511 27.1467 190.159 28.736 189.455 30.112C188.762 31.4773 187.781 32.5493 186.511 33.328C185.242 34.096 183.749 34.48 182.031 34.48ZM182.031 31.328C183.685 31.328 184.917 30.7733 185.727 29.664C186.549 28.544 186.959 27.104 186.959 25.344C186.959 23.5413 186.543 22.1013 185.711 21.024C184.89 19.936 183.663 19.392 182.031 19.392C180.911 19.392 179.989 19.648 179.263 20.16C178.538 20.6613 177.999 21.36 177.647 22.256C177.295 23.1413 177.119 24.1707 177.119 25.344C177.119 27.1573 177.535 28.608 178.367 29.696C179.199 30.784 180.421 31.328 182.031 31.328Z" fill="#190236"/>
<defs>
<filter id="filter0_d_1348_24637" x="0" y="3.5" width="48" height="40.9998" filterUnits="userSpaceOnUse" color-interpolation-filters="sRGB">
<feFlood flood-opacity="0" result="BackgroundImageFix"/>
<feColorMatrix in="SourceAlpha" type="matrix" values="0 0 0 0 0 0 0 0 0 0 0 0 0 0 0 0 0 0 127 0" result="hardAlpha"/>
<feOffset dx="2" dy="2"/>
<feGaussianBlur stdDeviation="2"/>
<feComposite in2="hardAlpha" operator="out"/>
<feColorMatrix type="matrix" values="0 0 0 0 0 0 0 0 0 0 0 0 0 0 0 0 0 0 0.08 0"/>
<feBlend mode="normal" in2="BackgroundImageFix" result="effect1_dropShadow_1348_24637"/>
<feBlend mode="normal" in="SourceGraphic" in2="effect1_dropShadow_1348_24637" result="shape"/>
</filter>
</defs>
</svg>
