<svg width="24" height="24" viewBox="0 0 24 24" fill="none" xmlns="http://www.w3.org/2000/svg">
<path d="M14.7858 15.4285C15.2973 15.4285 15.7878 15.6317 16.1495 15.9933C16.5112 16.355 16.7144 16.8455 16.7144 17.357V18.6445L16.7075 18.737C16.4418 20.5602 14.8046 21.4362 12.0575 21.4362C9.32064 21.4362 7.65693 20.5705 7.29778 18.7688L7.28578 18.6428V17.357C7.28578 16.8455 7.48897 16.355 7.85065 15.9933C8.21233 15.6317 8.70287 15.4285 9.21435 15.4285H14.7858ZM14.7858 16.7142H9.21435C9.04386 16.7142 8.88035 16.7819 8.75979 16.9025C8.63923 17.023 8.5715 17.1865 8.5715 17.357V18.5742C8.8115 19.6028 9.90007 20.1505 12.0575 20.1505C14.2141 20.1505 15.2546 19.6096 15.4286 18.5939V17.357C15.4286 17.1865 15.3609 17.023 15.2404 16.9025C15.1198 16.7819 14.9563 16.7142 14.7858 16.7142ZM15.6378 10.2848L20.3572 10.2856C20.8687 10.2856 21.3592 10.4888 21.7209 10.8505C22.0826 11.2122 22.2858 11.7027 22.2858 12.2142V13.5016L22.2789 13.5942C22.0132 15.4173 20.3761 16.2933 17.6289 16.2933L17.3589 16.2908C17.1058 15.6806 16.6445 15.1801 16.0569 14.8782C16.4984 14.9639 17.0212 15.0076 17.6289 15.0076C19.7855 15.0076 20.8261 14.4668 21.0001 13.451V12.2142C21.0001 12.0437 20.9323 11.8802 20.8118 11.7596C20.6912 11.6391 20.5277 11.5713 20.3572 11.5713H15.8572C15.8572 11.1205 15.7801 10.6868 15.6378 10.2848ZM3.64293 10.2856L8.36235 10.2848C8.24132 10.6272 8.16946 10.985 8.14893 11.3476L8.14293 11.5713H3.64293C3.47243 11.5713 3.30892 11.6391 3.18836 11.7596C3.0678 11.8802 3.00007 12.0437 3.00007 12.2142V13.4313C3.24007 14.4599 4.32864 15.0076 6.48607 15.0076C7.01921 15.0076 7.48378 14.9742 7.88493 14.909C7.32389 15.2139 6.88431 15.7019 6.6395 16.2916L6.48521 16.2933C3.74921 16.2933 2.0855 15.4276 1.72636 13.6259L1.71436 13.4999V12.2142C1.71436 11.7027 1.91754 11.2122 2.27922 10.8505C2.6409 10.4888 3.13144 10.2856 3.64293 10.2856ZM12.0001 8.57132C12.7957 8.57132 13.5588 8.88739 14.1214 9.45C14.684 10.0126 15.0001 10.7757 15.0001 11.5713C15.0001 12.367 14.684 13.13 14.1214 13.6926C13.5588 14.2553 12.7957 14.5713 12.0001 14.5713C11.2044 14.5713 10.4414 14.2553 9.87875 13.6926C9.31614 13.13 9.00007 12.367 9.00007 11.5713C9.00007 10.7757 9.31614 10.0126 9.87875 9.45C10.4414 8.88739 11.2044 8.57132 12.0001 8.57132ZM12.0001 9.85704C11.5454 9.85704 11.1094 10.0377 10.7879 10.3591C10.4664 10.6806 10.2858 11.1167 10.2858 11.5713C10.2858 12.026 10.4664 12.462 10.7879 12.7835C11.1094 13.105 11.5454 13.2856 12.0001 13.2856C12.4547 13.2856 12.8908 13.105 13.2123 12.7835C13.5337 12.462 13.7144 12.026 13.7144 11.5713C13.7144 11.1167 13.5337 10.6806 13.2123 10.3591C12.8908 10.0377 12.4547 9.85704 12.0001 9.85704ZM17.5715 3.42847C18.3671 3.42847 19.1302 3.74454 19.6928 4.30715C20.2554 4.86976 20.5715 5.63282 20.5715 6.42847C20.5715 7.22412 20.2554 7.98718 19.6928 8.54979C19.1302 9.1124 18.3671 9.42847 17.5715 9.42847C16.7758 9.42847 16.0128 9.1124 15.4502 8.54979C14.8876 7.98718 14.5715 7.22412 14.5715 6.42847C14.5715 5.63282 14.8876 4.86976 15.4502 4.30715C16.0128 3.74454 16.7758 3.42847 17.5715 3.42847ZM6.42864 3.42847C7.22429 3.42847 7.98735 3.74454 8.54996 4.30715C9.11257 4.86976 9.42864 5.63282 9.42864 6.42847C9.42864 7.22412 9.11257 7.98718 8.54996 8.54979C7.98735 9.1124 7.22429 9.42847 6.42864 9.42847C5.63299 9.42847 4.86993 9.1124 4.30732 8.54979C3.74471 7.98718 3.42864 7.22412 3.42864 6.42847C3.42864 5.63282 3.74471 4.86976 4.30732 4.30715C4.86993 3.74454 5.63299 3.42847 6.42864 3.42847ZM17.5715 4.71418C17.1168 4.71418 16.6808 4.89479 16.3593 5.21628C16.0378 5.53777 15.8572 5.97381 15.8572 6.42847C15.8572 6.88312 16.0378 7.31916 16.3593 7.64065C16.6808 7.96214 17.1168 8.14275 17.5715 8.14275C18.0262 8.14275 18.4622 7.96214 18.7837 7.64065C19.1052 7.31916 19.2858 6.88312 19.2858 6.42847C19.2858 5.97381 19.1052 5.53777 18.7837 5.21628C18.4622 4.89479 18.0262 4.71418 17.5715 4.71418ZM6.42864 4.71418C5.97398 4.71418 5.53795 4.89479 5.21646 5.21628C4.89497 5.53777 4.71435 5.97381 4.71435 6.42847C4.71435 6.88312 4.89497 7.31916 5.21646 7.64065C5.53795 7.96214 5.97398 8.14275 6.42864 8.14275C6.8833 8.14275 7.31933 7.96214 7.64082 7.64065C7.96231 7.31916 8.14293 6.88312 8.14293 6.42847C8.14293 5.97381 7.96231 5.53777 7.64082 5.21628C7.31933 4.89479 6.8833 4.71418 6.42864 4.71418Z" fill="#5508B6"/>
</svg>
