<svg width="24" height="24" viewBox="0 0 24 24" fill="none" xmlns="http://www.w3.org/2000/svg">
<path d="M6.68558 18.3751L9.87833 15.1823L8.81783 14.1218L5.62508 17.3146L5.03033 16.7198C4.88969 16.5792 4.69896 16.5002 4.50008 16.5002C4.30121 16.5002 4.11048 16.5792 3.96983 16.7198L0.969834 19.7198C0.829231 19.8605 0.750244 20.0512 0.750244 20.2501C0.750244 20.4489 0.829231 20.6397 0.969834 20.7803L3.21983 23.0303C3.36048 23.1709 3.55121 23.2499 3.75008 23.2499C3.94896 23.2499 4.13969 23.1709 4.28033 23.0303L7.28033 20.0303C7.42094 19.8897 7.49992 19.6989 7.49992 19.5001C7.49992 19.3012 7.42094 19.1105 7.28033 18.9698L6.68558 18.3751ZM3.75008 21.4396L2.56058 20.2501L4.50008 18.3106L5.68958 19.5001L3.75008 21.4396Z" fill="#190236"/>
<path d="M17.9999 22.5C16.8069 22.4986 15.6631 22.024 14.8195 21.1804C13.9759 20.3368 13.5013 19.193 13.4999 18C13.5002 17.6079 13.5532 17.2177 13.6574 16.8397L7.16091 10.3425C6.7827 10.4466 6.39222 10.4996 5.99991 10.5C5.26674 10.5029 4.54403 10.3259 3.89517 9.98453C3.24631 9.64316 2.6911 9.14782 2.27822 8.54194C1.86534 7.93606 1.6074 7.23814 1.52702 6.50938C1.44664 5.78061 1.54626 5.04326 1.81716 4.36196L2.23566 3.29621L4.71966 5.78021C4.8624 5.91651 5.05217 5.99256 5.24954 5.99256C5.4469 5.99256 5.63668 5.91651 5.77941 5.78021C5.84912 5.71061 5.90443 5.62796 5.94216 5.53698C5.97989 5.44599 5.99931 5.34846 5.99931 5.24996C5.99931 5.15146 5.97989 5.05392 5.94216 4.96294C5.90443 4.87195 5.84912 4.7893 5.77941 4.71971L3.29616 2.23421L4.36341 1.81646C5.0447 1.54604 5.78191 1.44681 6.51046 1.52747C7.239 1.60812 7.93665 1.8662 8.5423 2.27909C9.14794 2.69198 9.6431 3.24709 9.98438 3.89578C10.3257 4.54448 10.5027 5.26697 10.4999 5.99996C10.4996 6.39201 10.4466 6.78225 10.3424 7.16021L16.8397 13.6575C17.2176 13.5534 17.6079 13.5004 17.9999 13.5C18.7331 13.497 19.4558 13.674 20.1047 14.0154C20.7535 14.3568 21.3087 14.8521 21.7216 15.458C22.1345 16.0639 22.3924 16.7618 22.4728 17.4905C22.5532 18.2193 22.4536 18.9567 22.1827 19.638L21.7649 20.7037L19.2802 18.2197C19.1374 18.0834 18.9477 18.0073 18.7503 18.0073C18.5529 18.0073 18.3632 18.0834 18.2204 18.2197C18.1507 18.2892 18.0953 18.3719 18.0575 18.4628C18.0197 18.5538 18.0002 18.6513 18.0001 18.7498C18.0001 18.8483 18.0194 18.9458 18.0571 19.0369C18.0948 19.1279 18.15 19.2106 18.2197 19.2802L20.7044 21.765L19.6379 22.1835C19.1166 22.3908 18.5609 22.4982 17.9999 22.5ZM7.54641 8.60696L15.3922 16.4527L15.2129 16.9102C15.0373 17.3493 14.9686 17.8239 15.0126 18.2948C15.0566 18.7657 15.212 19.2194 15.466 19.6184C15.7199 20.0173 16.0652 20.3502 16.4732 20.5893C16.8812 20.8285 17.3402 20.9672 17.8124 20.994L17.1592 20.3415C16.9502 20.1325 16.7844 19.8845 16.6713 19.6115C16.5582 19.3384 16.5 19.0458 16.5 18.7503C16.5 18.4548 16.5582 18.1622 16.6713 17.8892C16.7844 17.6162 16.9502 17.3681 17.1592 17.1592C17.5878 16.7499 18.1576 16.5216 18.7503 16.5216C19.3429 16.5216 19.9128 16.7499 20.3414 17.1592L20.9939 17.8125C20.9671 17.3402 20.8283 16.8812 20.589 16.4732C20.3497 16.0652 20.0168 15.72 19.6178 15.466C19.2188 15.2121 18.7651 15.0567 18.2941 15.0127C17.8232 14.9687 17.3486 15.0373 16.9094 15.213L16.4527 15.3922L8.60766 7.54721L8.78766 7.08971C8.96334 6.65053 9.03199 6.17586 8.98795 5.70491C8.94391 5.23396 8.78844 4.78025 8.5344 4.38126C8.28035 3.98228 7.93501 3.64946 7.52691 3.41032C7.11881 3.17118 6.65967 3.03257 6.18741 3.00596L6.83991 3.65846C7.04889 3.86739 7.21465 4.11545 7.32775 4.38846C7.44085 4.66146 7.49906 4.95407 7.49906 5.24958C7.49906 5.54509 7.44085 5.8377 7.32775 6.11071C7.21465 6.38371 7.04889 6.63177 6.83991 6.84071C6.41129 7.24998 5.84143 7.47835 5.24879 7.47835C4.65614 7.47835 4.08629 7.24998 3.65766 6.84071L3.00516 6.18746C3.03189 6.65965 3.17058 7.1187 3.40977 7.5267C3.64896 7.93471 3.98179 8.27995 4.38076 8.53391C4.77973 8.78788 5.2334 8.94328 5.7043 8.98728C6.17519 9.03128 6.6498 8.96261 7.08891 8.78696L7.54641 8.60696Z" fill="#190236"/>
<path d="M21.8423 2.1374C21.4137 1.72813 20.8438 1.49976 20.2512 1.49976C19.6585 1.49976 19.0887 1.72813 18.66 2.1374L13.05 7.7474L14.1105 8.8079L19.7206 3.1979C19.8634 3.06155 20.0533 2.98547 20.2508 2.98547C20.4483 2.98547 20.6382 3.06155 20.781 3.1979C20.9213 3.33874 21 3.5294 21 3.72815C21 3.9269 20.9213 4.11756 20.781 4.2584L15.171 9.8684L16.2315 10.9297L21.8415 5.31965C22.263 4.89739 22.4998 4.32515 22.4998 3.72853C22.4998 3.13191 22.263 2.55966 21.8415 2.1374H21.8423Z" fill="#190236"/>
</svg>
